<?xml version="1.0" standalone="no"?>
<!DOCTYPE svg PUBLIC "-//W3C//DTD SVG 20010904//EN"
 "http://www.w3.org/TR/2001/REC-SVG-20010904/DTD/svg10.dtd">
<svg version="1.0" xmlns="http://www.w3.org/2000/svg"
 width="622.000000pt" height="725.000000pt" viewBox="0 0 622.000000 725.000000"
 preserveAspectRatio="xMidYMid meet">
<metadata>
Created by potrace 1.15, written by Peter Selinger 2001-2017
</metadata>
<g transform="translate(0.000000,725.000000) scale(0.100000,-0.100000)"
fill="#000000" stroke="none">
<path d="M2965 7176 c-143 -33 -249 -92 -348 -192 -120 -121 -177 -255 -184
-429 -9 -204 44 -342 187 -486 94 -95 155 -134 275 -175 72 -25 93 -28 210
-28 114 0 140 4 210 27 108 36 195 89 274 168 261 262 261 666 0 928 -125 126
-276 191 -459 197 -66 2 -127 -1 -165 -10z"/>
<path d="M4521 5741 c-126 -195 -471 -351 -936 -422 -178 -27 -593 -37 -782
-20 -388 37 -714 130 -922 265 -91 58 -156 118 -188 173 -14 24 -32 43 -41 42
-10 0 -12 -3 -5 -5 7 -3 9 -12 6 -20 -3 -8 0 -14 6 -14 6 0 8 -7 5 -15 -4 -8
-1 -15 5 -15 6 0 10 -3 9 -7 -1 -5 4 -20 10 -34 36 -87 1393 -3939 1396 -3962
2 -16 7 -32 12 -37 5 -5 86 209 186 493 98 276 425 1202 728 2057 302 855 549
1559 547 1564 -2 5 -18 -14 -36 -43z m-702 -2012 c-380 -1075 -695 -1961 -700
-1969 -5 -9 -9 723 -9 1748 l0 1762 78 0 c199 0 487 40 700 95 250 66 440 157
556 266 34 32 62 56 64 55 1 -2 -309 -882 -689 -1957z"/>
<path d="M1178 5102 c-115 -52 -208 -99 -208 -104 0 -13 -73 -108 -83 -108 -4
0 -6 -4 -3 -8 3 -5 -9 -25 -27 -44 -18 -19 -34 -39 -36 -44 -9 -22 -65 -94
-73 -94 -5 0 -6 -4 -3 -10 3 -5 1 -10 -5 -10 -7 0 -10 -7 -7 -15 4 -8 2 -17
-4 -21 -6 -3 -8 -12 -5 -20 3 -7 1 -16 -4 -19 -5 -3 -7 -12 -4 -19 3 -8 1 -17
-5 -20 -6 -4 -8 -13 -4 -21 3 -8 0 -15 -7 -15 -7 0 -10 -7 -7 -15 4 -8 2 -17
-4 -21 -6 -3 -8 -12 -5 -20 3 -7 1 -16 -4 -19 -5 -3 -7 -12 -3 -20 3 -8 0 -15
-7 -15 -7 0 -10 -7 -7 -15 4 -8 2 -17 -4 -21 -6 -3 -8 -12 -5 -20 3 -7 1 -16
-4 -19 -5 -3 -7 -12 -3 -20 3 -8 0 -15 -7 -15 -7 0 -10 -7 -7 -15 4 -8 2 -17
-4 -21 -6 -3 -8 -12 -5 -20 3 -7 1 -16 -4 -19 -5 -3 -7 -12 -4 -19 3 -8 1 -17
-5 -20 -6 -4 -8 -13 -4 -21 3 -8 0 -15 -7 -15 -7 0 -10 -7 -7 -15 4 -8 2 -17
-4 -21 -6 -3 -8 -12 -5 -20 3 -7 1 -16 -4 -19 -5 -3 -7 -12 -3 -20 3 -8 0 -15
-7 -15 -7 0 -10 -7 -7 -15 4 -8 2 -17 -4 -21 -6 -3 -8 -12 -5 -20 3 -7 1 -16
-4 -19 -5 -3 -7 -12 -3 -20 3 -8 0 -15 -7 -15 -7 0 -10 -7 -7 -15 4 -8 2 -17
-4 -21 -6 -3 -8 -12 -5 -20 3 -7 1 -16 -4 -19 -5 -3 -7 -12 -3 -20 3 -8 1 -15
-4 -15 -8 0 -10 -74 -3 -90 1 -3 2 -13 1 -22 -1 -10 3 -18 9 -18 7 0 9 -8 5
-19 -3 -11 -1 -22 5 -26 6 -4 8 -15 5 -25 -3 -10 -1 -21 4 -24 6 -4 8 -13 5
-20 -3 -8 0 -17 6 -21 6 -4 8 -15 5 -25 -3 -10 -1 -21 4 -24 6 -4 8 -13 5 -20
-3 -8 0 -17 6 -21 6 -4 8 -15 5 -25 -3 -10 -1 -21 4 -24 6 -4 8 -13 5 -20 -3
-8 0 -17 6 -21 6 -4 8 -15 5 -25 -3 -10 -1 -21 4 -24 6 -4 8 -13 5 -20 -3 -8
0 -17 6 -21 6 -4 8 -15 5 -25 -3 -10 -1 -21 5 -25 6 -4 8 -15 5 -26 -4 -11 -2
-19 5 -19 7 0 9 -8 5 -19 -3 -11 -1 -22 5 -26 6 -4 8 -15 5 -25 -3 -10 -1 -21
4 -24 6 -4 8 -13 5 -20 -3 -8 0 -17 6 -21 6 -4 8 -15 5 -25 -3 -10 -1 -21 4
-24 6 -4 8 -13 5 -20 -3 -8 0 -17 6 -21 6 -4 8 -15 5 -25 -3 -10 -1 -21 4 -24
6 -4 8 -13 5 -20 -3 -8 0 -17 6 -21 6 -4 8 -15 5 -25 -3 -10 -1 -21 5 -25 6
-4 8 -15 5 -26 -4 -11 -2 -19 5 -19 7 0 9 -8 5 -19 -3 -11 -1 -22 5 -26 6 -4
8 -15 5 -25 -3 -10 -1 -21 5 -25 6 -3 8 -11 4 -16 -3 -5 -1 -16 5 -23 6 -7 9
-20 5 -29 -3 -8 0 -18 5 -22 6 -3 9 -11 6 -16 -4 -5 -3 -15 2 -21 4 -7 8 -23
8 -36 l1 -22 -228 0 -227 0 -3 324 c-3 310 -4 326 -24 353 -11 15 -37 36 -58
47 -32 16 -44 17 -76 7 -38 -11 -103 -68 -94 -82 2 -4 0 -10 -6 -14 -7 -4 -10
-260 -10 -760 0 -500 3 -756 10 -760 6 -4 8 -11 5 -16 -4 -5 -1 -9 6 -9 7 0
10 -3 6 -6 -14 -15 56 -57 101 -61 59 -6 111 26 129 77 8 24 12 141 12 383 l1
347 718 0 717 0 -3 -346 c-2 -245 1 -350 8 -360 7 -7 9 -18 6 -23 -8 -13 52
-70 82 -77 39 -10 95 4 121 31 l26 25 3 789 2 789 -25 31 c-29 34 -78 52 -120
43 -31 -6 -90 -60 -95 -88 -2 -11 -4 -160 -4 -332 l-1 -312 -170 0 -171 0 -22
373 c-13 204 -28 544 -34 753 l-12 382 139 158 c76 88 144 166 151 174 11 13
-8 83 -116 429 -72 228 -131 415 -132 416 -2 2 -96 -40 -210 -93z"/>
<path d="M4815 5191 c3 -5 1 -12 -4 -16 -6 -3 -8 -12 -4 -20 3 -8 0 -15 -7
-15 -7 0 -10 -7 -6 -15 3 -8 1 -15 -5 -15 -6 0 -9 -7 -6 -15 4 -8 2 -17 -4
-20 -5 -4 -7 -10 -4 -15 3 -5 1 -11 -5 -15 -6 -4 -8 -10 -5 -15 3 -5 1 -11 -4
-15 -6 -3 -8 -12 -4 -20 3 -8 0 -15 -6 -15 -6 0 -8 -7 -5 -15 4 -8 1 -15 -6
-15 -7 0 -10 -7 -7 -15 4 -8 2 -17 -4 -20 -5 -4 -7 -10 -4 -15 3 -5 1 -11 -5
-15 -6 -4 -8 -10 -5 -15 3 -5 1 -11 -4 -15 -6 -3 -8 -12 -4 -20 3 -8 0 -15 -6
-15 -6 0 -8 -7 -5 -15 4 -8 1 -15 -6 -15 -7 0 -10 -7 -6 -15 3 -8 1 -15 -5
-15 -6 0 -9 -7 -6 -15 4 -8 2 -17 -4 -20 -5 -4 -7 -10 -4 -15 3 -5 1 -11 -5
-15 -6 -4 -8 -10 -5 -15 3 -5 1 -11 -4 -15 -6 -3 -8 -12 -4 -20 3 -8 0 -15 -7
-15 -7 0 -10 -7 -6 -15 3 -8 1 -15 -5 -15 -6 0 -9 -7 -6 -15 4 -8 2 -17 -4
-20 -5 -4 -7 -10 -4 -15 3 -5 1 -11 -5 -15 -6 -4 -8 -10 -5 -15 3 -5 1 -11 -4
-15 -6 -3 -8 -12 -4 -20 3 -8 0 -15 -6 -15 -6 0 -8 -7 -5 -15 4 -8 1 -15 -6
-15 -7 0 -10 -6 -7 -14 3 -7 0 -19 -6 -25 -6 -6 -7 -11 -2 -11 6 0 3 -4 -4 -9
-13 -8 -12 -13 6 -28 11 -10 81 -88 155 -173 l134 -155 -3 -175 c-7 -375 -14
-570 -28 -792 -21 -310 -27 -431 -27 -490 l0 -58 -159 0 -159 0 0 324 c0 320
0 323 -23 357 -26 39 -81 62 -127 52 -33 -6 -104 -65 -93 -76 3 -4 2 -7 -3 -7
-10 0 -8 -1535 1 -1551 4 -5 3 -9 0 -9 -4 0 12 -16 35 -35 48 -40 102 -47 150
-19 60 36 60 38 60 433 l0 361 723 0 722 0 -3 -352 c-1 -194 0 -358 2 -365 3
-7 5 -14 4 -16 -1 -1 7 -12 17 -25 43 -51 110 -66 165 -37 62 32 60 -1 60 842
0 753 0 769 -20 801 -24 39 -80 66 -120 57 -33 -7 -93 -49 -83 -58 3 -4 1 -7
-5 -7 -7 0 -11 -3 -10 -7 0 -5 -2 -15 -6 -23 -3 -9 -5 -156 -4 -328 l3 -312
-249 0 -248 0 6 33 c3 17 66 306 140 640 l134 608 -122 450 -122 449 -122 163
-121 163 -200 92 c-110 51 -203 92 -206 92 -3 0 -4 -4 0 -9z"/>
<path d="M2407 1669 c-137 -33 -219 -81 -330 -191 -54 -53 -96 -102 -92 -108
3 -5 1 -10 -5 -10 -6 0 -9 -4 -5 -9 3 -5 1 -12 -5 -16 -6 -4 -8 -10 -5 -15 3
-5 1 -11 -5 -15 -6 -4 -8 -10 -5 -15 3 -5 1 -11 -4 -15 -6 -3 -8 -12 -4 -20 3
-8 0 -15 -7 -15 -7 0 -10 -7 -7 -15 4 -8 2 -17 -4 -21 -6 -3 -8 -12 -5 -20 3
-7 1 -16 -5 -20 -6 -3 -8 -13 -5 -21 4 -9 1 -22 -5 -29 -6 -8 -8 -21 -5 -30 3
-9 3 -21 -1 -27 -12 -18 -15 -134 -12 -414 0 -18 5 -33 11 -33 5 0 8 -7 5 -15
-4 -8 -2 -17 3 -20 5 -3 7 -12 3 -20 -3 -8 0 -15 6 -15 6 0 8 -7 5 -15 -4 -8
-1 -15 6 -15 6 0 9 -4 5 -9 -3 -5 -1 -12 5 -16 6 -4 8 -11 5 -16 -4 -5 -1 -9
5 -9 6 0 9 -4 5 -9 -3 -5 -1 -12 5 -16 6 -4 8 -11 5 -16 -4 -5 -1 -9 5 -9 6 0
8 -5 5 -10 -3 -6 -1 -10 5 -10 6 0 8 -5 5 -10 -3 -6 -1 -10 5 -10 6 0 8 -4 5
-10 -3 -5 -1 -10 6 -10 7 0 10 -3 6 -6 -3 -3 1 -13 9 -22 8 -10 13 -19 12 -22
-1 -3 6 -14 15 -25 9 -11 17 -23 17 -27 1 -4 14 -22 30 -40 17 -18 30 -36 30
-40 0 -18 89 -96 122 -107 41 -14 107 -2 127 23 6 7 37 189 68 402 l56 389
129 258 129 258 -106 150 c-121 169 -106 161 -238 128z"/>
<path d="M3738 1677 c-10 -8 -15 -17 -11 -20 3 -4 -2 -9 -11 -13 -9 -3 -13
-10 -10 -15 3 -5 -2 -12 -10 -15 -9 -3 -16 -10 -16 -15 0 -15 -72 -119 -82
-119 -5 0 -7 -4 -4 -8 2 -4 -9 -23 -25 -41 -30 -35 -36 -51 -18 -51 5 0 7 -4
4 -10 -3 -5 -1 -10 5 -10 6 0 8 -4 5 -10 -3 -5 -1 -10 5 -10 6 0 8 -4 5 -10
-3 -5 -1 -10 5 -10 6 0 8 -4 5 -10 -3 -5 -1 -10 5 -10 6 0 8 -4 5 -10 -3 -5
-1 -10 5 -10 6 0 8 -4 5 -10 -3 -5 -1 -10 5 -10 6 0 8 -4 5 -10 -3 -5 -1 -10
5 -10 6 0 8 -4 5 -10 -3 -5 -1 -10 6 -10 7 0 9 -3 6 -7 -4 -3 20 -56 53 -118
33 -62 57 -115 53 -118 -3 -4 -1 -7 6 -7 7 0 9 -5 6 -10 -3 -5 -1 -10 5 -10 6
0 8 -4 5 -10 -3 -5 -1 -10 5 -10 6 0 8 -4 5 -10 -3 -6 -1 -10 5 -10 6 0 8 -4
5 -10 -3 -5 -2 -10 3 -10 5 0 10 -12 10 -27 0 -16 3 -46 7 -68 3 -22 5 -54 5
-72 0 -18 5 -35 10 -38 6 -3 7 -17 4 -30 -3 -13 -2 -30 3 -37 4 -7 9 -26 10
-43 2 -28 5 -55 18 -143 3 -20 5 -50 6 -66 0 -16 4 -35 10 -42 6 -7 8 -22 4
-33 -3 -12 -3 -26 2 -33 4 -7 9 -26 10 -43 2 -26 5 -47 11 -103 3 -22 65 -52
109 -52 56 0 102 41 183 161 70 105 118 203 155 319 25 75 29 104 33 251 5
192 -9 309 -60 483 -26 90 -39 119 -78 167 -83 103 -170 166 -293 211 -95 34
-184 45 -209 25z"/>
</g>
</svg>
